<?xml version="1.0" encoding="UTF-8" standalone="no"?>
<!-- Logo for https://github.com/lukechilds/dockerpi -->

<svg
   width="242"
   height="213"
   version="1.1"
   id="svg15"
   sodipodi:docname="logo.svg"
   inkscape:version="1.3 (0e150ed6c4, 2023-07-21)"
   xmlns:inkscape="http://www.inkscape.org/namespaces/inkscape"
   xmlns:sodipodi="http://sodipodi.sourceforge.net/DTD/sodipodi-0.dtd"
   xmlns="http://www.w3.org/2000/svg"
   xmlns:svg="http://www.w3.org/2000/svg">
  <defs
     id="defs15" />
  <sodipodi:namedview
     id="namedview15"
     pagecolor="#ffffff"
     bordercolor="#000000"
     borderopacity="0.25"
     inkscape:showpageshadow="2"
     inkscape:pageopacity="0.0"
     inkscape:pagecheckerboard="0"
     inkscape:deskcolor="#d1d1d1"
     inkscape:zoom="1.3861502"
     inkscape:cx="177.46994"
     inkscape:cy="61.681626"
     inkscape:window-width="2560"
     inkscape:window-height="1377"
     inkscape:window-x="2552"
     inkscape:window-y="6"
     inkscape:window-maximized="1"
     inkscape:current-layer="svg15" />
  <g
     class="raspberry"
     id="g15">
    <path
       class="background"
       d="M51 1c-3-1-6-1-9 1-4 0-5 1-6 2-1 0-7-1-9 3-7-1-9 4-7 8-1 2-3 4 1 8-2 3-1 5 2 8-1 3 0 5 3 7-1 4 4 7 5 7 1 3 2 5 7 7 0 3 3 4 6 5-9 5-17 13-17 30l-2 3c-11 7-21 28-5 46l4 13c2 18 17 26 21 27 6 4 12 8 20 11 7 8 16 11 24 11h1c8 0 16-3 24-11 8-3 14-7 20-11 4-1 19-9 21-27l4-13c16-18 6-39-5-46l-2-3c0-17-8-25-17-30 2-1 5-2 6-5 5-2 6-4 7-7 1 0 5-3 5-7 2-2 4-4 3-7 3-3 3-5 2-8 3-4 2-6 1-8 2-4 0-9-7-8-2-4-8-3-9-3-1-1-2-2-6-2-3-2-6-2-9-1-3-2-6 0-8 1-5-2-6 0-8 1-4-1-6 1-8 3h-3c-7 5-10 13-12 17-1-4-4-12-11-17h-3c-2-2-4-4-8-3-3-1-4-3-8-1l-5-2-3 1z"
       id="path1" />
    <g
       class="leaves"
       fill="#75a928"
       id="g3">
      <path
         d="M75 43c-3 12-19 12-24 12l2-2c-1-1-7 0-10-2l2-2c-3-1-7-2-9-4 1 0 2 1 4-1-3-1-6-2-9-5l4-1-7-5 3-1-6-6 5-1c-1-1-4-2-6-6h4l-4-7h9l-2-3c4-1 8 0 10 1 1-1 0-2-1-3l8 2c1-1-1-2-2-4 5 1 7 3 9 4 1-2 0-3-1-4 4 1 6 3 8 5V6l6 5 1-3 6 6 1-3c7 6 16 22 3 28-11-9-25-16-39-21 19 10 29 18 35 25z"
         id="path2" />
      <path
         d="M104 43c3 12 19 12 25 12l-3-2c2-1 7 0 11-2l-3-2c3-1 7-2 9-4-1 0-2 1-4-1 3-1 7-2 9-5l-4-1 8-5-4-1 6-6-4-1c0-1 4-2 5-6h-4l4-7h-9l2-3c-4-1-7 0-10 1-1-1 0-2 2-3l-9 2c-1-1 1-2 2-4-5 1-7 3-9 4-1-2 0-3 1-4l-7 5c-1-1-2-2-1-4l-6 5-1-3-6 6-1-3c-6 6-15 22-2 28 11-9 24-16 39-21-19 10-30 18-36 25z"
         id="path3" />
    </g>
    <g
       class="berries"
       fill="#bc1142"
       id="g14">
      <path
         d="M90 164c-13 0-23-9-23-20 0-12 10-21 23-21 12 0 22 9 22 21 0 11-10 20-22 20z"
         id="path4" />
      <path
         d="M81 115c-8 11-21 15-30 9-10-6-11-20-4-31s21-15 30-9 11 20 4 31z"
         id="path5" />
      <path
         d="M98 114c8 11 21 15 30 9 10-6 11-20 4-31s-21-15-30-9-11 20-4 31z"
         id="path6" />
      <path
         d="M25 132c-9-7-12-28 5-38 10-2 4 42-5 38z"
         id="path7" />
      <path
         d="M151 132c10-7 12-29-4-38-10-3-4 41 4 38z"
         id="path8" />
      <path
         d="M144 87c-1 7-38-25-32-26 18-3 32 7 32 26z"
         id="path9" />
      <path
         d="M33 86c1 8 38-25 31-26-17-3-32 7-31 26z"
         id="path10" />
      <path
         d="M69 68c0 6 8 11 20 12 13 0 21-5 21-11S99 56 89 56c-10-1-20 7-20 12z"
         id="path11" />
      <path
         d="M111 178c0 5-11 14-22 14-11 1-22-9-22-12 0-5 14-9 23-9s21 3 21 7z"
         id="path12" />
      <path
         d="M61 170c-6 3-18 2-27-10-6-11-5-22-1-25 7-4 16 1 24 10 6 8 9 21 4 25z"
         id="path13" />
      <path
         d="M116 170c5 4 18 4 28-10 7-9 5-24 1-28-6-4-15 1-23 10-7 9-11 24-6 28z"
         id="path14" />
    </g>
  </g>
  <path
     class="whale"
     fill="#009ddb"
     stroke="#000"
     stroke-width="4"
     d="M82 211c-91 0-80-80-80-80h152c26 0 34-8 34-8s-14-19 3-42c19 11 18 28 18 28s19-7 31 4c-6 22-36 21-36 21s-28 77-122 77"
     id="path15" />
  <text
     xml:space="preserve"
     style="font-size:71.0321px;font-family:Bahnschrift;-inkscape-font-specification:'Bahnschrift, Normal';fill:#ffffff;stroke-width:0.443949"
     x="80.535736"
     y="174.88101"
     id="text15"><tspan
       sodipodi:role="line"
       id="tspan15"
       x="80.535736"
       y="174.88101"
       style="stroke-width:0.443949">ng</tspan></text>
  <text
     xml:space="preserve"
     style="font-size:24.5387px;font-family:Bahnschrift;-inkscape-font-specification:'Bahnschrift, Normal';fill:#ffffff;stroke-width:0.153367"
     x="27.355604"
     y="191.67535"
     id="text16"><tspan
       sodipodi:role="line"
       id="tspan16"
       x="27.355604"
       y="191.67535"
       style="stroke-width:0.153367">dockerpi</tspan></text>
</svg>
